<svg width="125" height="41" viewBox="0 0 125 41" fill="none" xmlns="http://www.w3.org/2000/svg">
<path d="M0.518953 3.54477C0.518953 2.7371 0.757584 2.07628 1.23484 1.5623C1.74882 1.01162 2.37293 0.736277 3.10717 0.736277C3.80471 0.736277 4.3921 1.01162 4.86937 1.5623C5.38334 2.07628 5.64032 2.7371 5.64032 3.54477V25.0766C5.64032 26.4716 5.80553 27.7933 6.13594 29.0415C6.46635 30.253 6.98032 31.3176 7.67786 32.2355C8.37539 33.1533 9.23813 33.8692 10.2661 34.3831C11.3307 34.9338 12.5973 35.2092 14.0658 35.2092C14.7633 35.2092 15.3507 35.4661 15.828 35.9801C16.342 36.5308 16.599 37.21 16.599 38.0176C16.599 38.7519 16.342 39.3576 15.828 39.8349C15.3507 40.3489 14.7633 40.6059 14.0658 40.6059C11.9365 40.6059 10.0274 40.1837 8.33868 39.3393C6.68662 38.5316 5.2732 37.4302 4.09841 36.0352C2.96032 34.6401 2.07923 33.0064 1.45512 31.1341C0.831008 29.225 0.518953 27.2059 0.518953 25.0766V3.54477ZM14.1295 16.2656C14.1295 14.0996 14.5333 12.0804 15.341 10.2081C16.1854 8.29902 17.3051 6.64696 18.7002 5.25189C20.0952 3.85682 21.7289 2.75545 23.6013 1.94778C25.5103 1.1034 27.5295 0.681206 29.6588 0.681206C31.8248 0.681206 33.844 1.1034 35.7163 1.94778C37.6254 2.75545 39.2774 3.85682 40.6725 5.25189C42.0676 6.64696 43.1689 8.29902 43.9766 10.2081C44.821 12.0804 45.2432 14.0996 45.2432 16.2656C45.2432 18.3949 44.821 20.4141 43.9766 22.3231C43.1689 24.1955 42.0676 25.8292 40.6725 27.2242C39.2774 28.6193 37.6254 29.739 35.7163 30.5834C33.844 31.3911 31.8248 31.7949 29.6588 31.7949C27.5295 31.7949 25.5103 31.3911 23.6013 30.5834C21.7289 29.739 20.0952 28.6193 18.7002 27.2242C17.3051 25.8292 16.1854 24.1955 15.341 22.3231C14.5333 20.4141 14.1295 18.3949 14.1295 16.2656ZM19.2508 16.2656C19.2508 17.6607 19.5262 18.9823 20.0769 20.2305C20.6643 21.4787 21.4352 22.5801 22.3897 23.5346C23.3443 24.4892 24.4456 25.2601 25.6939 25.8475C26.9421 26.3982 28.2637 26.6735 29.6588 26.6735C31.0906 26.6735 32.4489 26.3982 33.7339 25.8475C35.0188 25.2601 36.1202 24.4892 37.038 23.5346C37.9925 22.5801 38.7451 21.4787 39.2958 20.2305C39.8465 18.9823 40.1218 17.6607 40.1218 16.2656C40.1218 14.8338 39.8465 13.4755 39.2958 12.1905C38.7451 10.9056 37.9925 9.80422 37.038 8.88641C36.1202 7.93189 35.0188 7.17929 33.7339 6.6286C32.4489 6.07792 31.0906 5.80258 29.6588 5.80258C28.2637 5.80258 26.9421 6.07792 25.6939 6.6286C24.4456 7.17929 23.3443 7.93189 22.3897 8.88641C21.4352 9.80422 20.6643 10.9056 20.0769 12.1905C19.5262 13.4755 19.2508 14.8338 19.2508 16.2656ZM79.3082 16.2656C79.3082 14.0996 79.712 12.0804 80.5197 10.2081C81.3641 8.29902 82.4838 6.64696 83.8789 5.25189C85.274 3.85682 86.9077 2.75545 88.78 1.94778C90.689 1.1034 92.7082 0.681206 94.8375 0.681206C97.0035 0.681206 99.0227 1.1034 100.895 1.94778C102.804 2.75545 104.456 3.85682 105.851 5.25189C107.246 6.64696 108.348 8.29902 109.155 10.2081C110 12.0804 110.422 14.0996 110.422 16.2656C110.422 18.3949 110 20.4141 109.155 22.3231C108.348 24.1955 107.246 25.8292 105.851 27.2242C104.456 28.6193 102.804 29.739 100.895 30.5834C99.0227 31.3911 97.0035 31.7949 94.8375 31.7949C92.7082 31.7949 90.689 31.3911 88.78 30.5834C86.9077 29.739 85.274 28.6193 83.8789 27.2242C82.4838 25.8292 81.3641 24.1955 80.5197 22.3231C79.712 20.4141 79.3082 18.3949 79.3082 16.2656ZM84.4296 16.2656C84.4296 17.6607 84.7049 18.9823 85.2556 20.2305C85.843 21.4787 86.614 22.5801 87.5685 23.5346C88.523 24.4892 89.6244 25.2601 90.8726 25.8475C92.1208 26.3982 93.4424 26.6735 94.8375 26.6735C96.2693 26.6735 97.6277 26.3982 98.9126 25.8475C100.198 25.2601 101.299 24.4892 102.217 23.5346C103.171 22.5801 103.924 21.4787 104.475 20.2305C105.025 18.9823 105.301 17.6607 105.301 16.2656C105.301 14.8338 105.025 13.4755 104.475 12.1905C103.924 10.9056 103.171 9.80422 102.217 8.88641C101.299 7.93189 100.198 7.17929 98.9126 6.6286C97.6277 6.07792 96.2693 5.80258 94.8375 5.80258C93.4424 5.80258 92.1208 6.07792 90.8726 6.6286C89.6244 7.17929 88.523 7.93189 87.5685 8.88641C86.614 9.80422 85.843 10.9056 85.2556 12.1905C84.7049 13.4755 84.4296 14.8338 84.4296 16.2656ZM119.813 3.26942C119.813 2.49847 120.051 1.87436 120.529 1.3971C121.043 0.919837 121.667 0.681206 122.401 0.681206C123.099 0.681206 123.686 0.919837 124.163 1.3971C124.677 1.87436 124.934 2.49847 124.934 3.26942V25.0766C124.934 27.2059 124.622 29.225 123.998 31.1341C123.411 33.0064 122.53 34.6401 121.355 36.0352C120.217 37.467 118.803 38.5867 117.114 39.3944C115.462 40.202 113.572 40.6059 111.442 40.6059C110.708 40.6059 110.102 40.3489 109.625 39.8349C109.111 39.3209 108.854 38.7335 108.854 38.0727C108.854 37.3385 109.111 36.7144 109.625 36.2004C110.102 35.6864 110.708 35.4294 111.442 35.4294C112.837 35.4294 114.049 35.1541 115.077 34.6034C116.142 34.0894 117.023 33.3552 117.72 32.4007C118.418 31.4829 118.932 30.3998 119.262 29.1516C119.629 27.8667 119.813 26.5083 119.813 25.0766V3.26942Z" fill="black"/>
<path d="M70.6039 3.21436C70.6039 2.55353 70.8426 1.98449 71.3198 1.50724C71.8338 0.993264 72.4212 0.736277 73.082 0.736277C73.7796 0.736277 74.422 0.993264 75.0094 1.50724C75.5968 1.98449 75.8905 2.55353 75.8905 3.21436V16.1004C75.8905 17.3119 75.6152 18.5418 75.0645 19.79C74.5505 21.0382 73.8713 22.2497 73.027 23.4245C72.1826 24.5993 71.2464 25.7007 70.2185 26.7286C69.2272 27.7566 68.2543 28.656 67.2998 29.427C66.382 30.1612 65.556 30.7486 64.8217 31.1892C64.0875 31.6297 63.5735 31.85 63.2798 31.85C62.9861 31.85 62.4538 31.6297 61.6828 31.1892C60.9486 30.7486 60.1042 30.1612 59.1497 29.427C58.2319 28.656 57.259 27.7566 56.2311 26.7286C55.2398 25.7007 54.322 24.5993 53.4776 23.4245C52.6333 22.2497 51.9357 21.0382 51.385 19.79C50.8711 18.5418 50.6141 17.3119 50.6141 16.1004V3.26942C50.6141 2.49847 50.9078 1.89271 51.4952 1.45216C52.0826 0.974906 52.7067 0.736277 53.3675 0.736277C54.065 0.736277 54.6524 0.974906 55.1297 1.45216C55.6437 1.89271 55.9007 2.49847 55.9007 3.26942V16.1004C55.9007 17.2018 56.1393 18.2481 56.6165 19.2393C57.0938 20.2305 57.6812 21.1483 58.3787 21.9927C59.113 22.8371 59.9207 23.6081 60.8017 24.3056C61.7196 25.0031 62.5823 25.6089 63.39 26.1229C64.1976 25.6089 65.0237 25.0215 65.868 24.3607C66.7124 23.6631 67.4834 22.8922 68.1809 22.0478C68.8785 21.1667 69.4475 20.2305 69.888 19.2393C70.3653 18.2481 70.6039 17.2018 70.6039 16.1004V3.21436Z" fill="#F703D0"/>
</svg>
